{"title":"Lezcuties.Megan.Angellina.Teen.Seducer.XXXmegathor.mpeg","uid":10628618,"size":739328679,"categoryP":"porn","categoryS":"movies","magnet":"?xt=urn:btih:b8fbf95daaee0c1f832b39f6b907424789d9a7dc&amp;dn=Lezcuties.Megan.Angellina.Teen.Seducer.XXXmegathor.mpeg&amp;tr=udp%3A%2F%2Ftracker.openbittorrent.com%3A80&amp;tr=udp%3A%2F%2Fopen.demonii.com%3A1337&amp;tr=udp%3A%2F%2Ftracker.coppersurfer.tk%3A6969&amp;tr=udp%3A%2F%2Fexodus.desync.com%3A6969","seeders":1,"leechers":0,"uploader":"XXXmegathor","files":1,"time":1406278806,"description":"Lezcuties.Megan.Angellina.Teen.Seducer.XXXmegathor\n\nSCREENIES &lt;a href=&quot;\nhttp://xxxtrapics.com/image/RL&quot; rel=&quot;nofollow&quot; target=&quot;_NEW&quot;&gt;\nhttp://xxxtrapics.com/image/RL&lt;/a&gt;\n\n\nDuration : 33mn 16s\nBit rate mode : Variable\nBit rate : 2 800 Kbps\nWidth : 960 pixels\nHeight : 540 pixels\nDisplay aspect ratio : 16:9\nFrame rate mode : Constant\nFrame rate : 25.000 fps\nColor space : YUV\nChroma subsampling : 4:2:0\nBit depth : 8 bits\nScan type : Progressive\nBits/(Pixel*Frame) : 0.216\nStream size : 667 MiB (95%)\nLanguage : English\nEncoded date : UTC 2011-11-19 14:52:40\nTagged date : UTC 2011-11-19 14:52:40\nColor primaries : BT.709-5, BT.1361, IEC 61966-2-4, SMPTE RP177\nTransfer characteristics : BT.709-5, BT.1361\nMatrix coefficients : BT.709-5, BT.1361, IEC 61966-2-4 709, SMPTE RP177\n\nAudio\nID : 2\nFormat : AAC\nFormat/Info : Advanced Audio Codec\nFormat profile : LC\nCodec ID : 40\nDuration : 33mn 16s\nBit rate mode : Variable\nBit rate : 157 Kbps\nMaximum bit rate : 193 Kbps\nChannel(s) : 2 channels\nChannel positions : Front: L R\nSampling rate : 48.0 KHz\nCompression mode : Lossy\nStream size : 37.5 MiB (5%)\nLanguage : English\nEncoded date : UTC 2011-11-19 14:52:40\nTagged date : UTC 2011-11-19 14:52:40","torrent":{"xt":"urn:btih:b8fbf95daaee0c1f832b39f6b907424789d9a7dc","amp;dn":"Lezcuties.Megan.Angellina.Teen.Seducer.XXXmegathor.mpeg","amp;tr":["udp%3A%2F%2Ftracker.openbittorrent.com%3A80","udp%3A%2F%2Fopen.demonii.com%3A1337","udp%3A%2F%2Ftracker.coppersurfer.tk%3A6969","udp%3A%2F%2Fexodus.desync.com%3A6969"],"infoHash":"b8fbf95daaee0c1f832b39f6b907424789d9a7dc","infoHashBuffer":{"type":"Buffer","data":[184,251,249,93,170,238,12,31,131,43,57,246,185,7,66,71,137,217,167,220]},"announce":[],"urlList":[]}}